{
  "accessors": [
    {
      "bufferView": 2,
      "componentType": 5126,
      "count": 238,
      "max": [
        14.239322662353516,
        25.860633850097656,
        28.82990074157715
      ],
      "min": [
        5.699445724487305,
        8.866886138916016,
        1.3715139627456665
      ],
      "type": "VEC3"
    },
    {
      "bufferView": 2,
      "byteOffset": 2856,
      "componentType": 5126,
      "count": 238,
      "max": [
        0.9993879795074463,
        0.989360511302948,
        0.9903533458709717
      ],
      "min": [
        -0.9896159768104553,
        -0.9877350926399231,
        -0.9862802624702454
      ],
      "type": "VEC3"
    },
    {
      "bufferView": 1,
      "componentType": 5126,
      "count": 238,
      "max": [
        0.9886850118637085,
        0.9996029734611511
      ],
      "min": [
        0.02117300033569336,
        0.22433799505233765
      ],
      "type": "VEC2"
    },
    {
      "bufferView": 0,
      "componentType": 5125,
      "count": 774,
      "type": "SCALAR"
    },
    {
      "bufferView": 2,
      "byteOffset": 5712,
      "componentType": 5126,
      "count": 65532,
      "max": [
        20.524398803710938,
        30.32105255126953,
        29.101659774780273
      ],
      "min": [
        0.0,
        0.0,
        0.0
      ],
      "type": "VEC3"
    },
    {
      "bufferView": 2,
      "byteOffset": 792096,
      "componentType": 5126,
      "count": 65532,
      "max": [
        0.9999659061431885,
        0.9999985098838806,
        1.0
      ],
      "min": [
        -0.9999905228614807,
        -0.9999868869781494,
        -0.9998392462730408
      ],
      "type": "VEC3"
    },
    {
      "bufferView": 1,
      "byteOffset": 1904,
      "componentType": 5126,
      "count": 65532,
      "max": [
        0.9958490133285522,
        0.9995859861373901
      ],
      "min": [
        0.003103999886661768,
        0.0033370000310242176
      ],
      "type": "VEC2"
    },
    {
      "bufferView": 0,
      "byteOffset": 3096,
      "componentType": 5125,
      "count": 339594,
      "type": "SCALAR"
    },
    {
      "bufferView": 2,
      "byteOffset": 1578480,
      "componentType": 5126,
      "count": 32371,
      "max": [
        18.858314514160156,
        27.18354034423828,
        29.174413681030273
      ],
      "min": [
        0.7044448852539063,
        0.8881072998046875,
        0.7690650224685669
      ],
      "type": "VEC3"
    },
    {
      "bufferView": 2,
      "byteOffset": 1966932,
      "componentType": 5126,
      "count": 32371,
      "max": [
        0.999900758266449,
        0.999980092048645,
        0.9999935030937195
      ],
      "min": [
        -0.9999035000801086,
        -0.9999499917030334,
        -0.9999442100524902
      ],
      "type": "VEC3"
    },
    {
      "bufferView": 1,
      "byteOffset": 526160,
      "componentType": 5126,
      "count": 32371,
      "max": [
        0.9962040185928345,
        1.0000799894332886
      ],
      "min": [
        0.0054419999942183495,
        0.0439860001206398
      ],
      "type": "VEC2"
    },
    {
      "bufferView": 0,
      "byteOffset": 1361472,
      "componentType": 5125,
      "count": 139116,
      "type": "SCALAR"
    }
  ],
  "asset": {
    "extras": {
      "author": "Benjamin Bardou (https://sketchfab.com/meryon)",
      "license": "CC-BY-4.0 (http://creativecommons.org/licenses/by/4.0/)",
      "source": "https://sketchfab.com/3d-models/amphitrite-louvre-museum-low-definition-0c5f1e26baea47a3bedf7fee4de231da",
      "title": "Amphitrite - Louvre Museum (Low Definition)"
    },
    "generator": "Sketchfab-12.67.0",
    "version": "2.0"
  },
  "bufferViews": [
    {
      "buffer": 0,
      "byteLength": 1917936,
      "name": "floatBufferViews",
      "target": 34963
    },
    {
      "buffer": 0,
      "byteLength": 785128,
      "byteOffset": 1917936,
      "byteStride": 8,
      "name": "floatBufferViews",
      "target": 34962
    },
    {
      "buffer": 0,
      "byteLength": 2355384,
      "byteOffset": 2703064,
      "byteStride": 12,
      "name": "floatBufferViews",
      "target": 34962
    }
  ],
  "buffers": [
    {
      "byteLength": 5058448,
      "uri": "scene.bin"
    }
  ],
  "images": [
    {
      "uri": "textures/lambert2SG_emissive.jpeg"
    }
  ],
  "materials": [
    {
      "doubleSided": true,
      "emissiveFactor": [
        1.0,
        1.0,
        1.0
      ],
      "emissiveTexture": {
        "index": 0
      },
      "name": "lambert2SG",
      "pbrMetallicRoughness": {
        "baseColorFactor": [
          0.0,
          0.0,
          0.0,
          1.0
        ],
        "metallicFactor": 0.0
      }
    }
  ],
  "meshes": [
    {
      "name": "Object_0",
      "primitives": [
        {
          "attributes": {
            "NORMAL": 1,
            "POSITION": 0,
            "TEXCOORD_0": 2
          },
          "indices": 3,
          "material": 0,
          "mode": 4
        }
      ]
    },
    {
      "name": "Object_1",
      "primitives": [
        {
          "attributes": {
            "NORMAL": 5,
            "POSITION": 4,
            "TEXCOORD_0": 6
          },
          "indices": 7,
          "material": 0,
          "mode": 4
        }
      ]
    },
    {
      "name": "Object_2",
      "primitives": [
        {
          "attributes": {
            "NORMAL": 9,
            "POSITION": 8,
            "TEXCOORD_0": 10
          },
          "indices": 11,
          "material": 0,
          "mode": 4
        }
      ]
    }
  ],
  "nodes": [
    {
      "children": [
        1
      ],
      "matrix": [
        1.0,
        0.0,
        0.0,
        0.0,
        0.0,
        2.220446049250313e-16,
        -1.0,
        0.0,
        0.0,
        1.0,
        2.220446049250313e-16,
        0.0,
        0.0,
        0.0,
        0.0,
        1.0
      ],
      "name": "Sketchfab_model"
    },
    {
      "children": [
        2
      ],
      "matrix": [
        1.0,
        0.0,
        0.0,
        0.0,
        0.0,
        1.0,
        0.0,
        0.0,
        0.0,
        0.0,
        1.0,
        0.0,
        -9.807792663574219,
        -15.075889587402344,
        -0.17734399437904358,
        1.0
      ],
      "name": "AMPHITRITE.obj.cleaner.gles"
    },
    {
      "children": [
        3,
        4,
        5
      ],
      "name": "Object_2"
    },
    {
      "mesh": 0,
      "name": "Object_3"
    },
    {
      "mesh": 1,
      "name": "Object_4"
    },
    {
      "mesh": 2,
      "name": "Object_5"
    }
  ],
  "samplers": [
    {
      "magFilter": 9729,
      "minFilter": 9987,
      "wrapS": 10497,
      "wrapT": 10497
    }
  ],
  "scene": 0,
  "scenes": [
    {
      "name": "Sketchfab_Scene",
      "nodes": [
        0
      ]
    }
  ],
  "textures": [
    {
      "sampler": 0,
      "source": 0
    }
  ]
}
